<mxfile host="app.diagrams.net" modified="2021-07-09T17:43:54.944Z" agent="5.0 (Windows NT 10.0; Win64; x64) AppleWebKit/537.36 (KHTML, like Gecko) Chrome/91.0.4472.124 Safari/537.36" etag="Kc7ghMi3vDkp09Cstv1H" version="14.8.5" type="github">
  <diagram id="C5RBs43oDa-KdzZeNtuy" name="Page-1">
    <mxGraphModel dx="1323" dy="626" grid="1" gridSize="10" guides="1" tooltips="1" connect="1" arrows="1" fold="1" page="1" pageScale="1" pageWidth="827" pageHeight="1169" background="none" math="0" shadow="0">
      <root>
        <mxCell id="WIyWlLk6GJQsqaUBKTNV-0" />
        <mxCell id="WIyWlLk6GJQsqaUBKTNV-1" parent="WIyWlLk6GJQsqaUBKTNV-0" />
        <mxCell id="WIyWlLk6GJQsqaUBKTNV-3" value="Start" style="rounded=1;whiteSpace=wrap;html=1;fontSize=12;glass=0;strokeWidth=1;shadow=0;fillColor=#6a00ff;strokeColor=#3700CC;fontColor=#ffffff;gradientColor=#000099;" parent="WIyWlLk6GJQsqaUBKTNV-1" vertex="1">
          <mxGeometry x="640" y="10" width="90" height="30" as="geometry" />
        </mxCell>
        <mxCell id="WIyWlLk6GJQsqaUBKTNV-10" value="&lt;font color=&quot;#ffffff&quot;&gt;Baik&lt;/font&gt;" style="rhombus;whiteSpace=wrap;html=1;shadow=0;fontFamily=Helvetica;fontSize=12;align=center;strokeWidth=1;spacing=6;spacingTop=-4;fontColor=#000000;fillColor=#6A00FF;gradientColor=#0000CC;strokeColor=#0000CC;" parent="WIyWlLk6GJQsqaUBKTNV-1" vertex="1">
          <mxGeometry x="225" y="301" width="140" height="70" as="geometry" />
        </mxCell>
        <mxCell id="bDoUtLGQbt2k-Oi-LWWi-0" value="Apakah Kualitas air Jernih?" style="rounded=0;whiteSpace=wrap;html=1;fillColor=#6a00ff;strokeColor=#3700CC;fontColor=#ffffff;gradientColor=#0000CC;" parent="WIyWlLk6GJQsqaUBKTNV-1" vertex="1">
          <mxGeometry x="245" y="145" width="120" height="60" as="geometry" />
        </mxCell>
        <mxCell id="bDoUtLGQbt2k-Oi-LWWi-30" value="" style="rounded=0;html=1;jettySize=auto;orthogonalLoop=1;fontSize=11;endArrow=block;endFill=0;endSize=8;strokeWidth=3;shadow=0;labelBackgroundColor=none;edgeStyle=orthogonalEdgeStyle;strokeColor=#B20000;fillColor=#e51400;" parent="WIyWlLk6GJQsqaUBKTNV-1" edge="1">
          <mxGeometry relative="1" as="geometry">
            <mxPoint x="640" y="30" as="sourcePoint" />
            <mxPoint x="293.5" y="140" as="targetPoint" />
            <Array as="points">
              <mxPoint x="294" y="30" />
              <mxPoint x="294" y="85" />
            </Array>
          </mxGeometry>
        </mxCell>
        <mxCell id="bDoUtLGQbt2k-Oi-LWWi-31" value="" style="rounded=0;html=1;jettySize=auto;orthogonalLoop=1;fontSize=11;endArrow=block;endFill=0;endSize=8;strokeWidth=3;shadow=0;labelBackgroundColor=none;edgeStyle=orthogonalEdgeStyle;strokeColor=#B20000;fillColor=#e51400;" parent="WIyWlLk6GJQsqaUBKTNV-1" edge="1">
          <mxGeometry relative="1" as="geometry">
            <mxPoint x="293.5" y="210" as="sourcePoint" />
            <mxPoint x="293.5" y="305" as="targetPoint" />
          </mxGeometry>
        </mxCell>
        <mxCell id="bDoUtLGQbt2k-Oi-LWWi-32" value="&lt;span style=&quot;background-color: rgb(255 , 255 , 255)&quot;&gt;&lt;font color=&quot;#0000ff&quot;&gt;ya&lt;/font&gt;&lt;/span&gt;" style="text;html=1;strokeColor=none;fillColor=none;align=center;verticalAlign=middle;whiteSpace=wrap;rounded=0;strokeWidth=3;" parent="WIyWlLk6GJQsqaUBKTNV-1" vertex="1">
          <mxGeometry x="278" y="233" width="40" height="20" as="geometry" />
        </mxCell>
        <mxCell id="bDoUtLGQbt2k-Oi-LWWi-37" value="&lt;font color=&quot;#ffffff&quot;&gt;Sesuai&lt;/font&gt;" style="rhombus;whiteSpace=wrap;html=1;shadow=0;fontFamily=Helvetica;fontSize=12;align=center;strokeWidth=1;spacing=6;spacingTop=-4;fontColor=#000000;fillColor=#6A00FF;gradientColor=#0000CC;strokeColor=#0000CC;" parent="WIyWlLk6GJQsqaUBKTNV-1" vertex="1">
          <mxGeometry x="899" y="310" width="140" height="70" as="geometry" />
        </mxCell>
        <mxCell id="bDoUtLGQbt2k-Oi-LWWi-38" value="" style="rounded=0;html=1;jettySize=auto;orthogonalLoop=1;fontSize=11;endArrow=block;endFill=0;endSize=8;strokeWidth=3;shadow=0;labelBackgroundColor=none;edgeStyle=orthogonalEdgeStyle;strokeColor=#B20000;fillColor=#e51400;" parent="WIyWlLk6GJQsqaUBKTNV-1" edge="1">
          <mxGeometry relative="1" as="geometry">
            <mxPoint x="293.5" y="366" as="sourcePoint" />
            <mxPoint x="293.5" y="461" as="targetPoint" />
          </mxGeometry>
        </mxCell>
        <mxCell id="ttesEgQAjPLRGnCT_DWM-0" value="Memberikan info Kepada User bahwa Kualitas air baik" style="rounded=0;whiteSpace=wrap;html=1;fillColor=#6a00ff;strokeColor=#3700CC;fontColor=#ffffff;gradientColor=#0000CC;" vertex="1" parent="WIyWlLk6GJQsqaUBKTNV-1">
          <mxGeometry x="238" y="460" width="120" height="60" as="geometry" />
        </mxCell>
        <mxCell id="ttesEgQAjPLRGnCT_DWM-4" value="" style="rounded=0;html=1;jettySize=auto;orthogonalLoop=1;fontSize=11;endArrow=block;endFill=0;endSize=8;strokeWidth=3;shadow=0;labelBackgroundColor=none;edgeStyle=orthogonalEdgeStyle;strokeColor=#B20000;fillColor=#e51400;exitX=0;exitY=0.5;exitDx=0;exitDy=0;" edge="1" parent="WIyWlLk6GJQsqaUBKTNV-1" source="WIyWlLk6GJQsqaUBKTNV-10">
          <mxGeometry relative="1" as="geometry">
            <mxPoint x="200" y="240" as="sourcePoint" />
            <mxPoint x="280" y="90" as="targetPoint" />
            <Array as="points">
              <mxPoint x="200" y="336" />
            </Array>
          </mxGeometry>
        </mxCell>
        <mxCell id="ttesEgQAjPLRGnCT_DWM-5" value="Apakah suhu=25-30C ?" style="rounded=0;whiteSpace=wrap;html=1;fillColor=#6a00ff;strokeColor=#3700CC;fontColor=#ffffff;gradientColor=#0000CC;" vertex="1" parent="WIyWlLk6GJQsqaUBKTNV-1">
          <mxGeometry x="625" y="140" width="120" height="60" as="geometry" />
        </mxCell>
        <mxCell id="ttesEgQAjPLRGnCT_DWM-7" value="&lt;font color=&quot;#ffffff&quot;&gt;Kurang dari&lt;/font&gt;" style="rhombus;whiteSpace=wrap;html=1;shadow=0;fontFamily=Helvetica;fontSize=12;align=center;strokeWidth=1;spacing=6;spacingTop=-4;fontColor=#000000;fillColor=#6A00FF;gradientColor=#0000CC;strokeColor=#0000CC;" vertex="1" parent="WIyWlLk6GJQsqaUBKTNV-1">
          <mxGeometry x="615" y="298" width="140" height="70" as="geometry" />
        </mxCell>
        <mxCell id="ttesEgQAjPLRGnCT_DWM-12" value="" style="endArrow=none;html=1;exitX=0.5;exitY=1;exitDx=0;exitDy=0;entryX=0.5;entryY=0;entryDx=0;entryDy=0;strokeColor=#B20000;" edge="1" parent="WIyWlLk6GJQsqaUBKTNV-1" source="WIyWlLk6GJQsqaUBKTNV-3" target="ttesEgQAjPLRGnCT_DWM-5">
          <mxGeometry width="50" height="50" relative="1" as="geometry">
            <mxPoint x="660" y="330" as="sourcePoint" />
            <mxPoint x="710" y="280" as="targetPoint" />
            <Array as="points" />
          </mxGeometry>
        </mxCell>
        <mxCell id="ttesEgQAjPLRGnCT_DWM-14" value="" style="rounded=0;html=1;jettySize=auto;orthogonalLoop=1;fontSize=11;endArrow=block;endFill=0;endSize=8;strokeWidth=3;shadow=0;labelBackgroundColor=none;edgeStyle=orthogonalEdgeStyle;strokeColor=#B20000;fillColor=#e51400;" edge="1" parent="WIyWlLk6GJQsqaUBKTNV-1">
          <mxGeometry relative="1" as="geometry">
            <mxPoint x="684.5" y="365" as="sourcePoint" />
            <mxPoint x="684.5" y="460" as="targetPoint" />
          </mxGeometry>
        </mxCell>
        <mxCell id="ttesEgQAjPLRGnCT_DWM-22" value="" style="rounded=0;html=1;jettySize=auto;orthogonalLoop=1;fontSize=11;endArrow=block;endFill=0;endSize=8;strokeWidth=3;shadow=0;labelBackgroundColor=none;edgeStyle=orthogonalEdgeStyle;strokeColor=#B20000;fillColor=#e51400;exitX=0;exitY=0.5;exitDx=0;exitDy=0;" edge="1" parent="WIyWlLk6GJQsqaUBKTNV-1">
          <mxGeometry relative="1" as="geometry">
            <mxPoint x="615" y="333" as="sourcePoint" />
            <mxPoint x="670" y="87" as="targetPoint" />
            <Array as="points">
              <mxPoint x="590" y="333" />
            </Array>
          </mxGeometry>
        </mxCell>
        <mxCell id="ttesEgQAjPLRGnCT_DWM-23" value="&lt;span style=&quot;background-color: rgb(255 , 255 , 255)&quot;&gt;&lt;font color=&quot;#0000ff&quot;&gt;Tidak&lt;/font&gt;&lt;/span&gt;" style="text;html=1;strokeColor=none;fillColor=none;align=center;verticalAlign=middle;whiteSpace=wrap;rounded=0;strokeWidth=3;" vertex="1" parent="WIyWlLk6GJQsqaUBKTNV-1">
          <mxGeometry x="220" y="60" width="40" height="20" as="geometry" />
        </mxCell>
        <mxCell id="ttesEgQAjPLRGnCT_DWM-24" value="&lt;span style=&quot;background-color: rgb(255 , 255 , 255)&quot;&gt;&lt;font color=&quot;#0000ff&quot;&gt;Tidak&lt;/font&gt;&lt;/span&gt;" style="text;html=1;strokeColor=none;fillColor=none;align=center;verticalAlign=middle;whiteSpace=wrap;rounded=0;strokeWidth=3;" vertex="1" parent="WIyWlLk6GJQsqaUBKTNV-1">
          <mxGeometry x="600" y="60" width="40" height="20" as="geometry" />
        </mxCell>
        <mxCell id="ttesEgQAjPLRGnCT_DWM-25" value="Mengecek tempratur suhu kurang dari 30C&lt;br&gt;maka suhu tersebut Normal" style="rounded=0;whiteSpace=wrap;html=1;fillColor=#6a00ff;strokeColor=#3700CC;fontColor=#ffffff;gradientColor=#0000CC;" vertex="1" parent="WIyWlLk6GJQsqaUBKTNV-1">
          <mxGeometry x="625" y="460" width="120" height="60" as="geometry" />
        </mxCell>
        <mxCell id="ttesEgQAjPLRGnCT_DWM-26" value="&lt;span style=&quot;background-color: rgb(255 , 255 , 255)&quot;&gt;&lt;font color=&quot;#0000ff&quot;&gt;ya&lt;/font&gt;&lt;/span&gt;" style="text;html=1;strokeColor=none;fillColor=none;align=center;verticalAlign=middle;whiteSpace=wrap;rounded=0;strokeWidth=3;" vertex="1" parent="WIyWlLk6GJQsqaUBKTNV-1">
          <mxGeometry x="278" y="394" width="40" height="20" as="geometry" />
        </mxCell>
        <mxCell id="ttesEgQAjPLRGnCT_DWM-28" value="" style="rounded=0;html=1;jettySize=auto;orthogonalLoop=1;fontSize=11;endArrow=block;endFill=0;endSize=8;strokeWidth=3;shadow=0;labelBackgroundColor=none;edgeStyle=orthogonalEdgeStyle;strokeColor=#B20000;fillColor=#e51400;" edge="1" parent="WIyWlLk6GJQsqaUBKTNV-1">
          <mxGeometry relative="1" as="geometry">
            <mxPoint x="684.5" y="203" as="sourcePoint" />
            <mxPoint x="684.5" y="298" as="targetPoint" />
          </mxGeometry>
        </mxCell>
        <mxCell id="ttesEgQAjPLRGnCT_DWM-29" value="&lt;span style=&quot;background-color: rgb(255 , 255 , 255)&quot;&gt;&lt;font color=&quot;#0000ff&quot;&gt;ya&lt;/font&gt;&lt;/span&gt;" style="text;html=1;strokeColor=none;fillColor=none;align=center;verticalAlign=middle;whiteSpace=wrap;rounded=0;strokeWidth=3;" vertex="1" parent="WIyWlLk6GJQsqaUBKTNV-1">
          <mxGeometry x="665" y="394" width="40" height="20" as="geometry" />
        </mxCell>
        <mxCell id="ttesEgQAjPLRGnCT_DWM-30" value="Apakah kadar pH=9.0-9.5?" style="rounded=0;whiteSpace=wrap;html=1;fillColor=#6a00ff;strokeColor=#3700CC;fontColor=#ffffff;gradientColor=#0000CC;" vertex="1" parent="WIyWlLk6GJQsqaUBKTNV-1">
          <mxGeometry x="909" y="150" width="120" height="60" as="geometry" />
        </mxCell>
        <mxCell id="ttesEgQAjPLRGnCT_DWM-31" value="" style="rounded=0;html=1;jettySize=auto;orthogonalLoop=1;fontSize=11;endArrow=block;endFill=0;endSize=8;strokeWidth=3;shadow=0;labelBackgroundColor=none;edgeStyle=orthogonalEdgeStyle;strokeColor=#B20000;fillColor=#e51400;exitX=1;exitY=0.5;exitDx=0;exitDy=0;" edge="1" parent="WIyWlLk6GJQsqaUBKTNV-1" source="WIyWlLk6GJQsqaUBKTNV-3">
          <mxGeometry relative="1" as="geometry">
            <mxPoint x="1306.5" y="40" as="sourcePoint" />
            <mxPoint x="960" y="150" as="targetPoint" />
            <Array as="points">
              <mxPoint x="960" y="25" />
            </Array>
          </mxGeometry>
        </mxCell>
        <mxCell id="ttesEgQAjPLRGnCT_DWM-32" value="" style="rounded=0;html=1;jettySize=auto;orthogonalLoop=1;fontSize=11;endArrow=block;endFill=0;endSize=8;strokeWidth=3;shadow=0;labelBackgroundColor=none;edgeStyle=orthogonalEdgeStyle;strokeColor=#B20000;fillColor=#e51400;startArrow=none;" edge="1" parent="WIyWlLk6GJQsqaUBKTNV-1" source="ttesEgQAjPLRGnCT_DWM-36">
          <mxGeometry relative="1" as="geometry">
            <mxPoint x="968.5" y="210" as="sourcePoint" />
            <mxPoint x="968.5" y="305" as="targetPoint" />
          </mxGeometry>
        </mxCell>
        <mxCell id="ttesEgQAjPLRGnCT_DWM-33" value="Jika Kadar Ph sesuai maka sangat baik untuk ikan lele tersebut" style="rounded=0;whiteSpace=wrap;html=1;fillColor=#6a00ff;strokeColor=#3700CC;fontColor=#ffffff;gradientColor=#0000CC;" vertex="1" parent="WIyWlLk6GJQsqaUBKTNV-1">
          <mxGeometry x="909" y="470" width="120" height="60" as="geometry" />
        </mxCell>
        <mxCell id="ttesEgQAjPLRGnCT_DWM-34" value="" style="rounded=0;html=1;jettySize=auto;orthogonalLoop=1;fontSize=11;endArrow=block;endFill=0;endSize=8;strokeWidth=3;shadow=0;labelBackgroundColor=none;edgeStyle=orthogonalEdgeStyle;strokeColor=#B20000;fillColor=#e51400;" edge="1" parent="WIyWlLk6GJQsqaUBKTNV-1">
          <mxGeometry relative="1" as="geometry">
            <mxPoint x="1040" y="343" as="sourcePoint" />
            <mxPoint x="980" y="70" as="targetPoint" />
            <Array as="points">
              <mxPoint x="1070" y="343" />
            </Array>
          </mxGeometry>
        </mxCell>
        <mxCell id="ttesEgQAjPLRGnCT_DWM-35" value="&lt;span style=&quot;background-color: rgb(255 , 255 , 255)&quot;&gt;&lt;font color=&quot;#0000ff&quot;&gt;ya&lt;/font&gt;&lt;/span&gt;" style="text;html=1;strokeColor=none;fillColor=none;align=center;verticalAlign=middle;whiteSpace=wrap;rounded=0;strokeWidth=3;" vertex="1" parent="WIyWlLk6GJQsqaUBKTNV-1">
          <mxGeometry x="665" y="233" width="40" height="20" as="geometry" />
        </mxCell>
        <mxCell id="ttesEgQAjPLRGnCT_DWM-36" value="&lt;span style=&quot;background-color: rgb(255 , 255 , 255)&quot;&gt;&lt;font color=&quot;#0000ff&quot;&gt;ya&lt;/font&gt;&lt;/span&gt;" style="text;html=1;strokeColor=none;fillColor=none;align=center;verticalAlign=middle;whiteSpace=wrap;rounded=0;strokeWidth=3;" vertex="1" parent="WIyWlLk6GJQsqaUBKTNV-1">
          <mxGeometry x="949" y="240" width="40" height="20" as="geometry" />
        </mxCell>
        <mxCell id="ttesEgQAjPLRGnCT_DWM-37" value="" style="rounded=0;html=1;jettySize=auto;orthogonalLoop=1;fontSize=11;endArrow=none;endFill=0;endSize=8;strokeWidth=3;shadow=0;labelBackgroundColor=none;edgeStyle=orthogonalEdgeStyle;strokeColor=#B20000;fillColor=#e51400;" edge="1" parent="WIyWlLk6GJQsqaUBKTNV-1" target="ttesEgQAjPLRGnCT_DWM-36">
          <mxGeometry relative="1" as="geometry">
            <mxPoint x="968.5" y="210" as="sourcePoint" />
            <mxPoint x="968.5" y="305" as="targetPoint" />
          </mxGeometry>
        </mxCell>
        <mxCell id="ttesEgQAjPLRGnCT_DWM-38" value="&lt;span style=&quot;background-color: rgb(255 , 255 , 255)&quot;&gt;&lt;font color=&quot;#0000ff&quot;&gt;Tidak&lt;/font&gt;&lt;/span&gt;" style="text;html=1;strokeColor=none;fillColor=none;align=center;verticalAlign=middle;whiteSpace=wrap;rounded=0;strokeWidth=3;" vertex="1" parent="WIyWlLk6GJQsqaUBKTNV-1">
          <mxGeometry x="1010" y="40" width="40" height="20" as="geometry" />
        </mxCell>
        <mxCell id="ttesEgQAjPLRGnCT_DWM-39" value="" style="rounded=0;html=1;jettySize=auto;orthogonalLoop=1;fontSize=11;endArrow=block;endFill=0;endSize=8;strokeWidth=3;shadow=0;labelBackgroundColor=none;edgeStyle=orthogonalEdgeStyle;strokeColor=#B20000;fillColor=#e51400;" edge="1" parent="WIyWlLk6GJQsqaUBKTNV-1">
          <mxGeometry relative="1" as="geometry">
            <mxPoint x="968.5" y="380" as="sourcePoint" />
            <mxPoint x="968.5" y="475" as="targetPoint" />
          </mxGeometry>
        </mxCell>
        <mxCell id="ttesEgQAjPLRGnCT_DWM-41" value="Mini Wifi" style="rounded=0;whiteSpace=wrap;html=1;fillColor=#6a00ff;strokeColor=#3700CC;fontColor=#ffffff;gradientColor=#0000CC;" vertex="1" parent="WIyWlLk6GJQsqaUBKTNV-1">
          <mxGeometry x="635" y="630" width="120" height="60" as="geometry" />
        </mxCell>
        <mxCell id="ttesEgQAjPLRGnCT_DWM-43" value="" style="endArrow=none;html=1;strokeColor=#B20000;entryX=0.017;entryY=0.65;entryDx=0;entryDy=0;entryPerimeter=0;" edge="1" parent="WIyWlLk6GJQsqaUBKTNV-1" target="ttesEgQAjPLRGnCT_DWM-41">
          <mxGeometry width="50" height="50" relative="1" as="geometry">
            <mxPoint x="290" y="520" as="sourcePoint" />
            <mxPoint x="290" y="680" as="targetPoint" />
            <Array as="points">
              <mxPoint x="290" y="570" />
              <mxPoint x="290" y="670" />
            </Array>
          </mxGeometry>
        </mxCell>
        <mxCell id="ttesEgQAjPLRGnCT_DWM-44" value="" style="endArrow=none;html=1;strokeColor=#B20000;" edge="1" parent="WIyWlLk6GJQsqaUBKTNV-1">
          <mxGeometry width="50" height="50" relative="1" as="geometry">
            <mxPoint x="681.96" y="515" as="sourcePoint" />
            <mxPoint x="682" y="630" as="targetPoint" />
            <Array as="points">
              <mxPoint x="681.96" y="565" />
            </Array>
          </mxGeometry>
        </mxCell>
        <mxCell id="ttesEgQAjPLRGnCT_DWM-45" value="" style="endArrow=none;html=1;strokeColor=#B20000;entryX=1;entryY=0.5;entryDx=0;entryDy=0;" edge="1" parent="WIyWlLk6GJQsqaUBKTNV-1" target="ttesEgQAjPLRGnCT_DWM-41">
          <mxGeometry width="50" height="50" relative="1" as="geometry">
            <mxPoint x="968.5" y="532.5" as="sourcePoint" />
            <mxPoint x="969" y="670" as="targetPoint" />
            <Array as="points">
              <mxPoint x="968.5" y="582.5" />
              <mxPoint x="969" y="660" />
              <mxPoint x="930" y="660" />
            </Array>
          </mxGeometry>
        </mxCell>
        <mxCell id="ttesEgQAjPLRGnCT_DWM-46" value="Notifikasi User ke telegram" style="rounded=0;whiteSpace=wrap;html=1;fillColor=#6a00ff;strokeColor=#3700CC;fontColor=#ffffff;gradientColor=#0000CC;" vertex="1" parent="WIyWlLk6GJQsqaUBKTNV-1">
          <mxGeometry x="625" y="785" width="120" height="60" as="geometry" />
        </mxCell>
        <mxCell id="ttesEgQAjPLRGnCT_DWM-47" value="&lt;span style=&quot;background-color: rgb(255 , 255 , 255)&quot;&gt;&lt;font color=&quot;#0000ff&quot;&gt;ya&lt;/font&gt;&lt;/span&gt;" style="text;html=1;strokeColor=none;fillColor=none;align=center;verticalAlign=middle;whiteSpace=wrap;rounded=0;strokeWidth=3;" vertex="1" parent="WIyWlLk6GJQsqaUBKTNV-1">
          <mxGeometry x="949" y="404" width="40" height="20" as="geometry" />
        </mxCell>
        <mxCell id="ttesEgQAjPLRGnCT_DWM-48" value="" style="rounded=0;html=1;jettySize=auto;orthogonalLoop=1;fontSize=11;endArrow=block;endFill=0;endSize=8;strokeWidth=3;shadow=0;labelBackgroundColor=none;edgeStyle=orthogonalEdgeStyle;strokeColor=#B20000;fillColor=#e51400;" edge="1" parent="WIyWlLk6GJQsqaUBKTNV-1">
          <mxGeometry relative="1" as="geometry">
            <mxPoint x="684.5" y="690" as="sourcePoint" />
            <mxPoint x="684.5" y="785" as="targetPoint" />
          </mxGeometry>
        </mxCell>
        <mxCell id="ttesEgQAjPLRGnCT_DWM-49" value="" style="rounded=0;html=1;jettySize=auto;orthogonalLoop=1;fontSize=11;endArrow=block;endFill=0;endSize=8;strokeWidth=3;shadow=0;labelBackgroundColor=none;edgeStyle=orthogonalEdgeStyle;strokeColor=#B20000;fillColor=#e51400;" edge="1" parent="WIyWlLk6GJQsqaUBKTNV-1">
          <mxGeometry relative="1" as="geometry">
            <mxPoint x="684.5" y="845" as="sourcePoint" />
            <mxPoint x="684.5" y="940" as="targetPoint" />
          </mxGeometry>
        </mxCell>
        <mxCell id="ttesEgQAjPLRGnCT_DWM-50" value="End" style="ellipse;whiteSpace=wrap;html=1;fillColor=#6A00FF;gradientColor=#0000CC;strokeColor=#0000CC;" vertex="1" parent="WIyWlLk6GJQsqaUBKTNV-1">
          <mxGeometry x="625" y="940" width="120" height="80" as="geometry" />
        </mxCell>
      </root>
    </mxGraphModel>
  </diagram>
</mxfile>
